<svg
  xmlns="http://www.w3.org/2000/svg"
  viewBox="0 0 128 128"
  width="128"
  height="128"
>
  <defs>
    <radialGradient id="bg" cx="50%" cy="50%" r="60%">
      <stop offset="0%" stop-color="#ffffff" stop-opacity="1" />
      <stop offset="100%" stop-color="#f3f3f3" stop-opacity="1" />
    </radialGradient>
    <filter id="glow" x="-50%" y="-50%" width="200%" height="200%">
      <feGaussianBlur stdDeviation="3" result="blur" />
      <feMerge>
        <feMergeNode in="blur" />
        <feMergeNode in="SourceGraphic" />
      </feMerge>
    </filter>
  </defs>

  <rect width="128" height="128" rx="32" fill="url(#bg)" />

  <circle
    cx="64"
    cy="64"
    r="54"
    fill="none"
    stroke="#d0d0d0"
    stroke-dasharray="1 5"
    stroke-width="2"
  />

  <g filter="url(#glow)" fill="#ff1a1a">
    <path
      d="M26 80
         Q30 52 30 40
         Q30 34 36 32
         Q48 30 54 34
         Q46 38 40 40
         L48 44
         Q44 48 38 50
         L34 72
         Z"
    />
    <path
      d="M52 80
         L60 36
         Q62 30 68 30
         Q74 30 78 36
         L82 52
         L92 30
         L104 32
         L90 80
         L80 80
         L74 54
         L68 80
         Z"
    />
  </g>
</svg>
